<?xml version="1.0" encoding="UTF-8"?>
<svg xmlns="http://www.w3.org/2000/svg" viewBox="0 0 722.79 703.2">
  <defs>
    <style>
      .cls-1 {
        fill: #e82327;
      }

      .cls-1, .cls-2, .cls-3, .cls-4, .cls-5, .cls-6 {
        stroke-width: 0px;
      }

      .cls-2 {
        fill: #fff;
      }

      .cls-3 {
        fill: #202020;
      }

      .cls-4 {
        fill: #fbd22c;
      }

      .cls-5 {
        fill: #212121;
      }

      .cls-6 {
        fill: #0298d2;
      }
    </style>
  </defs>
  <g id="Layer_1" data-name="Layer 1">
    <rect class="cls-3" x="220.42" y="558.28" width="502.37" height="144.92" rx="7.04" ry="7.04"/>
    <g>
      <path class="cls-5" d="m0,574.55h62.97v10.88H13.17v30.34h46.37v10.88H13.17v34.92h52.66v10.88H0v-97.88Z"/>
      <path class="cls-5" d="m127.51,574.55h11.45v97.88h-11.45v-8.01c-4.2,6.11-9.93,9.16-17.17,9.16-8.01,0-14.31-2.29-18.89-6.87-6.87-6.87-10.3-15.64-10.3-26.33,0-11.45,3.05-20.22,9.16-26.33,4.95-4.95,10.88-7.44,17.74-7.44,8.39,0,14.88,3.25,19.46,9.73v-41.79Zm-28.05,46.94c-3.82,3.82-5.72,10.12-5.72,18.89s2.09,14.7,6.3,18.89c2.67,2.67,5.91,4.01,9.73,4.01,4.58,0,8.39-1.52,11.45-4.58,4.19-4.19,6.3-10.3,6.3-18.32s-2.29-14.31-6.87-18.89c-3.06-3.05-6.68-4.58-10.88-4.58-3.82,0-7.25,1.53-10.3,4.58Z"/>
      <path class="cls-5" d="m155.43,608.32h11.45v42.93c0,4.58,1.15,8.01,3.43,10.3,1.91,1.91,4.58,2.86,8.01,2.86,4.96,0,9.35-1.9,13.17-5.72,5.72-5.72,8.59-11.64,8.59-17.75v-32.63h11.45v64.11h-11.45v-11.45c-6.11,8.4-13.55,12.59-22.32,12.59-8.01,0-13.74-1.72-17.17-5.15-3.43-3.43-5.15-7.82-5.15-13.17v-46.94Z"/>
      <path class="cls-2" d="m239.44,581.42c5.34-5.34,13.54-8.01,24.61-8.01,11.82,0,20.79,3.06,26.9,9.16,5.34,5.35,8.01,11.65,8.01,18.89h-13.17c0-4.58-1.53-8.39-4.58-11.45-3.43-3.43-8.78-5.15-16.03-5.15-8.01,0-13.55,1.53-16.6,4.58-2.67,2.67-4.01,5.72-4.01,9.16s.76,5.92,2.29,7.44c1.9,1.91,5.34,3.82,10.3,5.72,8.77,3.82,18.69,8.21,29.77,13.17,3.05,1.15,5.91,3.06,8.59,5.72,4.2,4.2,6.3,9.16,6.3,14.88,0,7.64-2.67,14.12-8.01,19.46-5.72,5.72-15.08,8.59-28.05,8.59s-22.32-3.43-29.19-10.3c-4.96-4.96-7.44-12.21-7.44-21.75h13.17c0,6.87,1.52,11.83,4.58,14.88,4.19,4.2,10.68,6.3,19.46,6.3,8.01,0,13.93-1.91,17.74-5.72,3.05-3.05,4.58-6.1,4.58-9.16,0-3.43-1.14-6.3-3.43-8.59-1.91-1.91-4.96-3.81-9.16-5.72-3.82-1.9-8.78-4.19-14.88-6.87-6.87-3.05-12.41-5.53-16.6-7.44-3.06-1.15-5.72-2.86-8.01-5.15-3.43-3.43-5.15-8.01-5.15-13.74,0-7.25,2.67-13.54,8.01-18.89Z"/>
      <path class="cls-2" d="m325.92,613.47c4.2-4.19,10.3-6.3,18.32-6.3,9.53,0,16.4,2.1,20.61,6.3,3.81,3.82,5.72,8.21,5.72,13.17v36.06c0,4.2,1.52,7.44,4.58,9.73h-13.74c-1.53-1.52-2.29-4.01-2.29-7.44-5.72,5.72-12.98,8.59-21.75,8.59-7.25,0-12.79-1.91-16.6-5.72-3.43-3.43-5.15-7.44-5.15-12.02,0-5.34,1.72-9.73,5.15-13.17,3.81-3.81,9.16-6.3,16.03-7.44,4.58-.76,8.59-1.72,12.02-2.86,4.96-1.14,8.39-2.29,10.3-3.43,0-3.05-1.14-5.72-3.43-8.01-2.29-2.29-5.54-3.43-9.73-3.43-5.35,0-9.16,1.15-11.45,3.43-1.53,1.53-2.67,3.63-3.43,6.3h-12.59c1.15-5.34,3.62-9.92,7.44-13.74Zm33.2,26.33c-2.29.77-4.39,1.34-6.3,1.72-6.49,1.53-11.45,2.67-14.88,3.43-3.06.77-5.35,1.91-6.87,3.43-1.91,1.91-2.86,4.01-2.86,6.3,0,2.67.95,4.96,2.86,6.87,1.14,1.14,3.62,1.72,7.44,1.72,6.48,0,11.82-2.09,16.03-6.3,2.67-2.67,4.19-4.58,4.58-5.72v-11.45Z"/>
      <path class="cls-2" d="m402.09,672.43h-11.45v-64.11h11.45v11.45c6.87-8.39,14.11-12.59,21.75-12.59s13.74,2.29,18.32,6.87c3.05,3.06,4.58,6.68,4.58,10.88v47.51h-11.45v-44.08c0-3.43-1.14-6.3-3.43-8.59-2.29-2.29-5.54-3.43-9.73-3.43-3.82,0-7.64,1.91-11.45,5.72-5.72,5.72-8.59,11.83-8.59,18.32v32.06Z"/>
      <path class="cls-2" d="m464.52,574.55h11.45v61.82l28.05-28.05h14.31l-21.75,21.75,26.33,42.36h-12.02l-21.75-34.92-13.17,13.17v21.75h-11.45v-97.88Z"/>
      <path class="cls-2" d="m541.84,613.47c4.19-4.19,10.3-6.3,18.32-6.3,9.53,0,16.4,2.1,20.61,6.3,3.81,3.82,5.72,8.21,5.72,13.17v36.06c0,4.2,1.52,7.44,4.58,9.73h-13.74c-1.53-1.52-2.29-4.01-2.29-7.44-5.72,5.72-12.98,8.59-21.75,8.59-7.25,0-12.79-1.91-16.6-5.72-3.43-3.43-5.15-7.44-5.15-12.02,0-5.34,1.72-9.73,5.15-13.17,3.81-3.81,9.16-6.3,16.03-7.44,4.58-.76,8.59-1.72,12.02-2.86,4.96-1.14,8.39-2.29,10.3-3.43,0-3.05-1.15-5.72-3.43-8.01-2.29-2.29-5.54-3.43-9.73-3.43-5.35,0-9.16,1.15-11.45,3.43-1.53,1.53-2.67,3.63-3.43,6.3h-12.59c1.14-5.34,3.62-9.92,7.44-13.74Zm33.2,26.33c-2.29.77-4.39,1.34-6.3,1.72-6.49,1.53-11.45,2.67-14.88,3.43-3.06.77-5.35,1.91-6.87,3.43-1.91,1.91-2.86,4.01-2.86,6.3,0,2.67.95,4.96,2.86,6.87,1.15,1.14,3.62,1.72,7.44,1.72,6.48,0,11.82-2.09,16.03-6.3,2.67-2.67,4.2-4.58,4.58-5.72v-11.45Z"/>
      <path class="cls-2" d="m607.71,574.55h11.45v97.88h-11.45v-97.88Z"/>
      <path class="cls-2" d="m649.54,693.61h-11.45v-85.29h11.45v7.44c4.58-5.72,10.49-8.59,17.74-8.59,8.01,0,14.5,2.49,19.46,7.44,6.1,6.11,9.16,14.69,9.16,25.76s-3.06,20.23-9.16,26.33c-4.96,4.96-11.45,7.44-19.46,7.44s-13.93-3.05-17.74-9.16v28.62Zm5.72-70.98c-3.82,3.82-5.72,8.4-5.72,13.74v8.01c0,5.35,2.09,10.12,6.3,14.31,3.43,3.43,7.24,5.15,11.45,5.15,3.81,0,7.06-1.33,9.73-4.01,4.19-4.19,6.3-10.68,6.3-19.46s-1.91-14.5-5.72-18.32c-3.06-3.05-6.49-4.58-10.3-4.58-4.58,0-8.59,1.72-12.02,5.15Z"/>
    </g>
  </g>
  <g id="Layer_3" data-name="Layer 3">
    <g>
      <path class="cls-1" d="m452.6,69.41c-132.3-5.23-232.98,108.69-176.62,245.8-44.36-24.33-67.5-60.27-76.35-104.54C180.53,115.19,237.19,27.74,331.62,2.9c23.25-6.12,42.92-3.12,60.93,14.35,18.61,18.05,39.13,34.14,60.06,52.15Z"/>
      <path class="cls-6" d="m407.01,498.26c-3.67,1.97-9.34,4.82-16.52,7.63-12.33,4.81-37.39,15.05-60.59,8.59-11.16-3.11-21.99-9.6-32.52-20.57-16.26-16.94-36.41-30.17-61.75-50.69,71.56,6.71,128-9.56,167.4-63.66,39.42-54.12,37.75-111.96,11.39-171.75,69.76,30.16,98.86,109.46,74.75,200.75-1.41,4.06-3.23,8.57-5.58,13.34-2.43,4.93-4.98,9.23-7.41,12.91-14.25,18.15-28.03,36.73-46.74,50.8-2.04,1.37-4.18,2.74-6.41,4.09-5.54,3.36-10.92,6.18-16.02,8.56Z"/>
      <path class="cls-4" d="m168.47,156.12c-5.6,68.74,12.73,121.87,63.12,161.89,51.04,40.55,107.22,41.44,167.62,18.88-1.34,18.3-12.28,27.07-22.17,35.48-50.47,42.87-108.07,53.25-169.54,30.1-61.12-23.01-97.47-69.07-110.84-132.8-3.86-18.41-.68-34.86,13.57-49.01,19.04-18.91,32.69-42.79,58.24-64.55Z"/>
      <path class="cls-5" d="m291.1,186.73c44.01-74.74,147.9-97.64,223.95-51.72,46.83,28.28,76.85,68.46,84.23,123.64,1.13,8.44,2.3,17.8-3.3,24.68-21.14,25.95-43.01,51.32-68.42,81.41,4.25-68.69-16.02-121.16-67.07-159.08-51.36-38.15-108.46-38.62-169.39-18.93Z"/>
    </g>
  </g>
</svg>