<?xml version="1.0" encoding="UTF-8"?>
<svg id="Layer_1" data-name="Layer 1" xmlns="http://www.w3.org/2000/svg" viewBox="0 0 637.35 852.79">
  <defs>
    <style>
      .cls-1 {
        fill: #212121;
      }

      .cls-1, .cls-2, .cls-3 {
        opacity: .55;
      }

      .cls-1, .cls-2, .cls-3, .cls-4 {
        stroke-width: 0px;
      }

      .cls-2 {
        fill: #fbd22f;
      }

      .cls-3 {
        fill: #0298d1;
      }

      .cls-4 {
        fill: #d8d8d8;
      }
    </style>
  </defs>
  <path class="cls-4" d="m487.59,261.98c45.9-19.75,91.61-39.96,137.08-60.68,5.49-2.5,12.44-8.92,12.67-13.81.23-4.9-6.06-11.98-11.29-14.98C527.74,116.02,429.13,60.04,330.7,3.76c-8.03-4.59-14.91-5.25-23.25-.48C208.23,60.05,108.81,116.47,9.7,173.44,4.96,176.16.12,183.05,0,188.11c-.1,4.12,6.02,9.97,10.75,12.33,16.12,8.07,32.95,14.7,49.25,22.43,3.65,1.73,8.76,5.64,8.87,8.71.78,21.08.41,42.2.41,62.97-27.13,3.77-39.02,14.3-39.43,34.89-.49,24.53-.49,49.09,0,73.63.39,19.55,13.86,32.78,33.53,33.53,12.48.47,25.01.38,37.5.04,21.27-.59,34.37-13.77,34.72-35.12.31-19.44.08-38.89.08-58.34,0-34.78-5.24-41.49-39.05-49.51v-54.67c10.29,4.49,18.37,9.54,27.15,11.58,31.84,7.42,44.28,26.03,38.47,58.58-2.15,12.05-.72,23.95-8.44,35.4-8.49,12.56-6.96,27.43-.12,41.16,7.75,15.55,14.79,31.53,23.67,46.41,8.72,14.6,16.61,31.99,29.75,41.17,1.24.86,2.42,1.74,3.56,2.62,21.96,17.16,25.29,38.74,22.16,64.24-.05.46-.07.94,0,1.39,1.31,8.01-2.58,11.49-10.1,13.43-18.81,4.87-37.46,10.33-56.13,15.71-35.17,10.14-70.12,20.85-101.2,41.1-37.89,24.68-57.09,59.57-57.19,104.83-.09,38.44-.1,76.87,0,115.31.04,16.87,3.72,20.8,20.17,20.8,193.51.07,387.02.07,580.54,0,16.6,0,20.44-3.96,20.48-20.57.11-38.9.31-77.8-.18-116.7-.13-10.54-1.63-21.29-4.14-31.55-9.31-37.93-34.66-63.82-68.61-79.13-35.25-15.91-72.62-27.13-109.12-40.22-13.84-4.97-32.8-5.6-40.33-15.28-7.05-9.06-1.67-27.51-2.56-41.78-.51-8.35,2.6-13.38,9.23-18.34,5.53-4.14,10.68-8.55,15.47-13.24,17.67-17.28,30.39-38.23,38.89-62.26,2.54-7.18,6.56-14.04,10.97-20.3,11.18-15.84,12.32-31.93,4.96-49.84-4.21-10.25-6.64-21.5-8.1-32.53-1.34-10.01.41-20.4-.48-30.51-.88-10.01,3.24-14.65,12.19-18.5ZM68.32,197.08c-8.7-3.73-16.49-7.08-26.5-11.38,9.6-5.6,17.21-10.04,26.5-15.46v26.84Zm29.85,125.19c8.48-.26,11.52,3.9,11.39,11.83-.19,10.62-.05,21.25-.05,31.88-.03,11.09-.1,22.19,0,33.28.07,7.51-3.43,11.13-10.98,10.75-.46-.03-.92.02-1.38.01-49.56-.93-40.05,7.59-41.06-38.82-.27-12.47.14-24.96-.05-37.43-.13-8.16,3.34-11.8,11.65-11.52,10.15.34,20.33.32,30.48.02Zm197.26,282.82c-13.95,14.93-26.72,28.61-41.33,44.25-9.82-22.87-18.93-44.08-28.8-67.09,32.52-14.33,47.1,17.49,70.13,22.84Zm-35.94-94.46c39.66,13.95,77.75,14.64,118.27-.27,0,14.38.41,26.98-.31,39.52-.16,2.76-3.87,6.07-6.74,7.79-17.02,10.24-33.98,27.23-51.52,27.94-16.03.65-32.57-16.87-49.3-25.58-8.13-4.24-11.29-9.61-10.57-18.68.77-9.57.17-19.24.17-30.72ZM35.49,825.25c0-41.15-1.18-80.99.38-120.71,1.19-30.21,17.06-54.44,42.77-69.34,22.2-12.88,46.53-22.35,70.53-31.77,15.77-6.2,32.62-9.64,48.59-14.19,21.93,34.06,72.19,180.38,81.24,236.01H35.49Zm283.39,1.08c-6.45-.08-11.24-.42-13.45-8.22-12.75-44.95-26.1-89.73-38.76-134.69-1.02-3.63.18-9.63,2.71-12.22,15.74-16.18,32.15-31.71,49.28-48.36,17.29,16.86,34.02,32.7,50.03,49.24,2.42,2.5,2.95,8.66,1.89,12.42-12.59,44.52-25.81,88.85-38.44,133.35-2.16,7.62-6.61,8.57-13.26,8.48Zm226.94-197.29c39.01,19,58.87,51.58,57,96.67-1.37,32.76-.27,65.63-.27,99.45h-245.04c23.33-79.57,41.69-160.32,83.09-238.41,35.27,13.96,71.38,25.8,105.22,42.29Zm-132.98-48.54c-10.22,23.95-19.33,45.31-29.12,68.24-13.69-15.44-26.18-29.52-39.28-44.3,12.94-7.7,28.63-18.22,45.46-26.38,5.28-2.56,13.65,1.25,22.94,2.44Zm44.25-202.34c-5.14,6.66-10.24,14.11-12.61,22.04-9.69,32.43-30.63,59.01-57.76,75.72-20.08,12.38-43.55,19.35-68.35,19.3-24.57-.05-47.79-7.01-67.68-19.3-27.26-16.83-48.27-43.66-57.91-76.4-2.21-7.51-6.96-14.69-11.95-20.87-7.65-9.49-7.5-17.59-.57-27.52,4.13-5.93,6.46-13.66,7.77-20.91,3.21-17.66,4.28-35.77,8.37-53.2,2.24-9.56,7.81-18.86,13.73-26.92,11.26-15.36,26.89-23.15,46.08-18.04,18.48,4.93,27.81,19.04,31.47,37.06,4.73,23.25,9.89,24.86,30.03,11.73,11.09-7.23,23.33-13.68,35.95-17.41,50.65-14.95,89.6,12.23,95.55,64.72.96,8.48,5.02,17.04,9.33,24.6,5.3,9.32,5.16,16.83-1.45,25.4ZM190.39,181.29c2.85-18.22,19.22-30.72,37.89-30.87,60.19-.47,120.39-.56,180.58,0,22.25.21,39.35,17.67,40.13,40.03.78,22.19.17,44.43.17,69.45-44.48-36.84-90.1-32.75-137.25-7.81-21.16-48.74-74.47-67.81-122.04-21.59,0-16.75-1.96-33.33.52-49.21Zm285.13,12.64c-.88-41.67-29.69-70.27-71.54-70.48-56.9-.29-113.81-.3-170.71,0-41.77.21-70.59,28.79-71.62,70.5-.35,13.81-.06,27.64-.06,44.61-22.05-9.73-42.04-18.46-61.89-27.49-1.66-.75-2.59-3.49-3.42-5.49-.5-1.19-.12-2.74-.19-4.12q-2.53-45.62,36.96-68.14c58.25-33.21,116.52-66.39,174.73-99.69,6.16-3.53,11.13-6.25,18.86-1.79,87.37,50.31,175,100.15,262.54,150.15,1.17.67,2.13,1.71,5.22,4.26-39.53,17.47-77.86,34.4-118.83,52.5,0-17.16.25-31-.05-44.82Z"/>
  <path class="cls-2" d="m109.51,365.98c-.03,11.09-.1,22.19,0,33.28.07,7.51-3.43,11.13-10.98,10.75-.46-.03-.92.02-1.38.01-49.56-.93-40.05,7.59-41.06-38.82-.27-12.47.14-24.96-.05-37.43-.13-8.16,3.34-11.8,11.65-11.52,10.15.34,20.33.32,30.48.02,8.48-.26,11.52,3.9,11.39,11.83-.19,10.62-.05,21.25-.05,31.88Z"/>
  <path class="cls-1" d="m449.16,259.9c-44.48-36.84-90.1-32.75-137.25-7.81-21.16-48.74-74.47-67.81-122.04-21.59,0-16.75-1.96-33.33.52-49.21,2.85-18.22,19.22-30.72,37.89-30.87,60.19-.47,120.39-.56,180.58,0,22.25.21,39.35,17.67,40.13,40.03.78,22.19.17,44.43.17,69.45Z"/>
  <path class="cls-3" d="m68.32,170.24v26.84c-8.7-3.73-16.49-7.08-26.5-11.38,9.6-5.6,17.21-10.04,26.5-15.46Z"/>
  <path class="cls-3" d="m475.57,238.75c0-17.16.25-31-.05-44.82-.88-41.67-29.69-70.27-71.54-70.48-56.9-.29-113.81-.3-170.71,0-41.77.21-70.59,28.79-71.62,70.5-.35,13.81-.06,27.64-.06,44.61-22.05-9.73-42.04-18.46-61.89-27.49-1.66-.75-2.59-3.49-3.42-5.49-.5-1.19-.12-2.74-.19-4.12q-2.53-45.62,36.96-68.14c58.25-33.21,116.52-66.39,174.73-99.69,6.16-3.53,11.13-6.25,18.86-1.79,87.37,50.31,175,100.15,262.54,150.15,1.17.67,2.13,1.71,5.22,4.26-39.53,17.47-77.86,34.4-118.83,52.5Z"/>
</svg>